<svg viewBox="0 0 207.16 112.72" xmlns="http://www.w3.org/2000/svg"><text font-family="PTSans-CaptionBold, 'PT Sans Caption'" font-weight="700" transform="translate(0 9.35)"><tspan fill="#aeb0b3" font-size="11"><tspan x="0" y="0">And tha</tspan><tspan letter-spacing="-.01em" x="42.03" y="0">t</tspan><tspan letter-spacing="-.08em" x="46.34" y="0">’</tspan><tspan x="48.15" y="0">s the long-winded s</tspan><tspan letter-spacing="0em" x="154.42" y="0">t</tspan><tspan x="158.79" y="0">or</tspan><tspan letter-spacing="-.04em" x="170.04" y="0">y</tspan><tspan x="175.54" y="0"/><tspan letter-spacing="-.01em" x="178.57" y="0">o</tspan><tspan x="185.19" y="0">f</tspan></tspan><tspan fill="#aeb0b3" font-size="11"><tspan x="0" y="13.2">h</tspan><tspan letter-spacing="0em" x="7.02" y="13.2">o</tspan><tspan letter-spacing="-.03em" x="13.7" y="13.2">w</tspan><tspan x="22.47" xml:space="preserve" y="13.2"> I ended up m</tspan><tspan letter-spacing="0em" x="97.04" y="13.2">e</tspan><tspan x="103.51" y="13.2">eting</tspan><tspan letter-spacing="-.02em" x="131.8" y="13.2"></tspan><tspan letter-spacing="0em" x="134.58" y="13.2">y</tspan><tspan x="140.45" y="13.2">our mothe</tspan><tspan letter-spacing="-.06em" x="196.9" y="13.2">r</tspan><tspan letter-spacing="-.04em" x="200.7" y="13.2">.</tspan></tspan><tspan fill="#464749" font-size="16"><tspan letter-spacing="1.97em" x="0" y="45.6"/><tspan x="36" y="45.6">{{ SUBSCRIBE }}</tspan></tspan><tspan fill="#aeb0b3" font-size="11"><tspan x="0" y="72">B</tspan><tspan letter-spacing="-.04em" x="7.05" y="72">y</tspan><tspan x="12.55" xml:space="preserve" y="72"> subscribing</tspan><tspan letter-spacing="-.04em" x="77.66" y="72">,</tspan><tspan letter-spacing="-.02em" x="79.94" y="72"></tspan><tspan letter-spacing="0em" x="82.72" y="72">y</tspan><tspan x="88.58" y="72">ou’ll get email notif</tspan><tspan x="198.67" y="72">-</tspan></tspan><tspan fill="#aeb0b3" font-size="11"><tspan x="0" y="85.2">cations</tspan><tspan letter-spacing="-.02em" x="38.91" y="85.2"/><tspan x="41.78" y="85.2">when</tspan><tspan letter-spacing="-.02em" x="71.42" y="85.2">e</tspan><tspan letter-spacing="0em" x="77.78" y="85.2">v</tspan><tspan x="83.7" y="85.2">er I post a n</tspan><tspan letter-spacing="0em" x="147.88" y="85.2">e</tspan><tspan letter-spacing="-.03em" x="154.35" y="85.2">w</tspan><tspan x="163.13" xml:space="preserve" y="85.2"> a</tspan><tspan letter-spacing=".03em" x="172.53" y="85.2">r</tspan><tspan x="177.38" y="85.2">ticle </tspan></tspan><tspan fill="#aeb0b3" font-size="11"><tspan x="0" y="98.4">or image!</tspan></tspan></text></svg>